<svg xmlns="http://www.w3.org/2000/svg" width="866" height="1055"><path d="M592.203 144.129c11.454 7.662 19.612 17.914 22.348 31.633 2.682 19.338-2.131 38.021-10.627 55.34a231 231 0 0 0-2.658 5.703c-11.189 24.102-28.329 45.482-46.66 64.503-2.082 2.194-4.067 4.465-6.043 6.755-2.903 3.3-5.975 6.184-9.333 9.015-2.634 2.27-5.139 4.66-7.668 7.047C521.247 333.716 509.708 342.189 498 350l-1.729 1.16a460 460 0 0 1-25.896 16.09c-.81.47-1.619.941-2.452 1.427-5.145 2.929-10.394 5.525-15.764 8.006l-2.094.971Q447.534 378.83 445 380l-.212 3.06q-1.372 19.752-2.788 39.503l-.231 3.229c-2.387 33.27-5.098 66.498-8.207 99.708l-.271 2.903Q431.67 545.703 430 563c32.894-10.342 32.894-10.342 65.625-21.187l3.092-1.052c43.067-14.69 85.877-31.184 127.346-49.948l2.679-1.203c6.445-2.995 12.345-6.68 18.258-10.61l1.912-1.233c4.145-2.982 4.98-6.069 6.326-10.736C656 465 656 465 658.25 462.875c3.739-1.19 5.98-.952 9.75.125 3.52 2.526 5.23 4.656 6 8.875.427 7.14-3.486 12.503-7.832 17.816-48.995 52.174-156.436 70.884-222.078 87.667l-2.832.725q-2.62.67-5.243 1.331c-4.11 1.004-4.11 1.004-8.015 2.586-.498 2.252-.498 2.252-.698 5.03l-.316 3.307-.318 3.667-.354 3.844c-.322 3.503-.63 7.006-.934 10.51q-.289 3.304-.584 6.607c-2.055 23.057-3.838 46.132-5.447 69.224l-.48 6.839c-1.858 26.606-3.092 53.17-3.119 79.847l-.007 3.296a505 505 0 0 0 2.6 51.868c1.531 15.397 1.531 15.397-1.718 19.461-3.028 2.884-3.764 3.4-7.875 3.875-3.739-.374-5.746-.99-8.482-3.602-5.137-7.183-5.17-18.25-6.148-26.823a866 866 0 0 0-.757-6.35c-1.751-14.774-2.522-29.454-2.566-44.33l-.022-4.404a3465 3465 0 0 1-.025-14.053v-2.434c-.002-26.907.675-53.58 3.25-80.379l.337-3.523a4701 4701 0 0 1 4.627-45.654A4044 4044 0 0 0 402 588l-1.923.494q-9.877 2.534-19.757 5.06l-7.38 1.892q-5.293 1.358-10.588 2.71l-3.35.862-3.093.789c-.902.23-1.803.462-2.732.7C351 601 351 601 349 601l.48 3.5c.518 4.16.734 8.3.836 12.488l.064 2.23q.096 3.548.183 7.095l.063 2.466c.598 23.435.183 46.767-.563 70.195q-.084 2.73-.16 5.463a784 784 0 0 1-.278 8l-.056 2.16c-.209 4.442-1.286 7.597-3.569 11.403-2.626 2.157-4.053 2-7.5 1.938-4.296-1.151-5.179-2.203-7.5-5.938a47 47 0 0 1-.504-7.617l-.025-2.356q-.026-2.58-.029-5.159c-.008-4.845-.086-9.688-.16-14.532l-.048-3.277c-.262-15.631-1.003-31.248-1.69-46.865l-.32-7.355Q327.621 620.919 327 607a15499 15499 0 0 0-30.21 7.99c-25.943 6.877-25.943 6.877-51.638 14.621l-3.113.983-2.556.834c-2.906.67-5.51.735-8.483.572-1-1-1-1-1.062-3.562L230 626c8.338-3.938 16.973-6.904 25.688-9.875l2.436-.834c14.6-4.985 29.306-9.607 44.063-14.104l3.094-.945q4.347-1.326 8.7-2.637l2.636-.802 2.423-.724 2.109-.635C323 595 323 595 326 595l-.1-1.66c-3.69-61.395-5.418-122.834-4.9-184.34l-3.55.048c-44.25.54-44.25.54-64.45-3.048l-1.984-.346c-16.493-2.876-32.887-6.125-49.078-10.404l-3.26-.853-2.963-.819-2.559-.706c-2.324-.94-3.535-1.987-5.156-3.872l2-5c6.65.622 12.988 1.793 19.5 3.25 10.22 2.209 20.477 3.943 30.813 5.5l2.123.323c12.614 1.91 24.902 3.082 37.67 3.025l3.652-.005c3.81-.005 7.62-.018 11.43-.03q3.9-.009 7.798-.014A11800 11800 0 0 0 322 396l-.041-2.397C320.946 331.546 322.783 263.571 338 203c1-1 1-1 3.438-1.187C344 202 344 202 346 204c0 1.89 0 1.89-.355 4.25l-.384 2.725-.449 3.025c-2.155 15.957-3.655 31.943-4.812 48l-.165 2.266C336.763 307.4 337.806 350.788 338 394l2.64-.613 3.498-.81 3.452-.802a490 490 0 0 1 9.207-1.994c12.747-2.707 25.105-6.156 37.453-10.281l2.075-.688a269 269 0 0 0 9.857-3.48c2.593-.964 5.091-1.617 7.808-2.133 4.357-1.122 6.752-2.07 10.01-5.199 2.618-6.484 2.404-13.94 2.747-20.827.25-4.579.711-9.13 1.193-13.69l.269-2.546.558-5.251c.483-4.578.936-9.16 1.392-13.74 17.073-170.768 17.073-170.768 38.68-189.536 26.088-17.03 98.517 7.268 123.364 21.719m-121.793-4.895c-24.012 44.823-19.02 112.769-21.988 162.158l-.344 5.702q-.496 8.21-.975 16.419-.147 2.524-.299 5.048c-.567 9.492-.948 18.925-.804 28.439 4.983-1.63 9.14-3.582 13.625-6.25l2.22-1.317c19.09-11.52 37.583-25.043 53.866-40.292a155 155 0 0 1 6.039-5.329c9.532-8.313 18.462-17.415 26.285-27.351 1.863-2.333 3.815-4.519 5.84-6.711 19.984-22.32 43.803-55.994 43.336-87.102-.735-9.221-4.391-16.183-11.121-22.418-25.008-19.538-74.278-29.09-105.86-28.964-4.931 1.12-6.977 3.974-9.82 7.968m-55.652 251.34-3.195 1.016-3.438 1.098C385.05 399.875 361.808 404.102 338 408c-.283 12.557.561 25.067 1.27 37.598l.405 7.301c1.47 26.273 3.114 52.535 4.776 78.796q.605 9.589 1.207 19.178Q346.826 569.436 348 588c7.57-1.836 15.057-3.832 22.508-6.102l2.826-.854q2.918-.882 5.833-1.77 4.478-1.36 8.958-2.712l5.695-1.726 2.705-.818 2.491-.759 2.192-.665c1.864-.57 1.864-.57 3.792-1.594.497-2.081.497-2.081.7-4.643l.318-3.049.323-3.378c.12-1.168.238-2.337.36-3.54q.49-4.845.962-9.692c.337-3.428.684-6.856 1.03-10.284q.989-9.832 1.958-19.668c.717-7.256 1.444-14.51 2.172-21.766q1.903-18.968 3.781-37.94 1.451-14.625 2.929-29.248l.712-7.061q.498-4.95 1.001-9.901.45-4.43.895-8.86l.267-2.605c.349-3.48.592-6.863.592-10.365-3.16 0-5.245.607-8.242 1.574" fill="#00affe"/></svg>
